# xmcd CD database file
#
# Track frame offsets:
#	150
#	13087
#	32587
#	37237
#	54525
#	85237
#	105450
#	130237
#	152175
#	171375
#
# Disc length: 2554 seconds
#
# Revision: 0
# Processed by: cddbd v1.5.1PL0 Copyright (c) Steve Scherf et al.
# Submitted via: CDex 1.50
#
DISCID=8109f80a
DTITLE=三重野瞳 - 23.4
DYEAR=1999
DGENRE=Vocal
TTITLE0=ウソの日
TTITLE1=ビーシュ
TTITLE2=ガリレオの夜(Orgel)
TTITLE3=ガリレオの夜
TTITLE4=23.4(Story)
TTITLE5=ドライブ　ドライブ
TTITLE6=花かんむり
TTITLE7=君を着て
TTITLE8=ガリレオの夜(Reprise)
TTITLE9=最後の蜜
EXTD=YEAR: 1999/07/23
EXTT0=
EXTT1=
EXTT2=
EXTT3=
EXTT4=
EXTT5=
EXTT6=
EXTT7=
EXTT8=
EXTT9=
PLAYORDER=
